<svg xmlns="http://www.w3.org/2000/svg" viewBox="0 0 48 48">
  <path fill="#E76F00" d="M23.68 4.04c-2.02.33-2.58 1.16-3.12 2.47-1.39 3.39-1.67 6.63-1.04 10.63.63 4.03.82 6.82-.16 8.68-.76 1.43-2.43 1.98-3.74 2.17-1.67.25-3.16.35-3.22.82-.06.47 1.41.62 3.02.7 1.61.08 3.87-.06 5.28-.47 2.21-.64 3.72-2.02 3.72-4.6 0-2.47-.82-4.02-1.99-5.87-.35-.57-.74-1.2-1.14-1.86-.35-.58-.59-1.08-.59-1.22 0-.13.24-.39.55-.58.31-.19.59-.43.63-.53.13-.33-.24.04-.82.81-.6.81-.94 1.46-1.12 2.24-.19.81-.22 1.63-.13 2.57.1 1.07.33 1.89.57 2.24.35.52 1.02.84 2.02.96 1.19.15 1.76-.1 2.17-1.04.34-.78.26-2.17-.13-3.91-.37-1.64-.76-2.96-1.13-3.78-.33-.72-.82-1.48-1.46-2.25-1.04-1.25-1.74-1.86-3.07-2.59-1.17-.64-2.36-1.07-3.52-1.28-1.11-.2-2.5-.3-3.62-.2-1.09.1-2.36.39-3.26.76-1.04.43-1.89 1.09-1.89 1.48s.43.62 1.16.85c2.84.87 5.23 1.45 7.59 1.84 2.5.41 4.84.78 7.11 1.5 2.22.71 3.62 1.95 3.62 3.22 0 1.5-1.56 2.63-4.33 3.15-2.5.47-5.58.25-7.7-.55-1.74-.66-3.26-1.67-4.02-2.65-.3-.39-.55-.71-.7-.71-.26 0-.46.55-.46 1.22 0 1.95 1.48 4.18 4.33 6.48 2.5 2.02 5.54 3.39 9.21 4.18 1.89.41 3.82.61 5.76.61 2.22 0 4.33-.26 6.19-.76 3.69-1.01 5.87-2.81 5.87-4.84 0-2.31-2.63-3.35-7.23-4.45-3.72-.89-5.87-1.61-6.79-2.28-.87-.63-1.3-1.43-1.3-2.39 0-.96.57-1.79 1.74-2.52.92-.58 2.43-1.16 4.21-1.63 1.5-.39 3.29-.73 5.03-.96 1.63-.22 3.16-.35 3.95-.35 1.22 0 2.52.19 3.55.51 1.09.35 2.22.96 2.91 1.58.26.25.5.45.54.45.06 0 .3-.31.54-.7.74-1.19 2.39-2.72 4.28-3.96 1.78-1.16 4.18-2.11 6.71-2.66 1.04-.22 1.12-.27 1.12-.71 0-.43-.43-.47-1.74-.23z"/>
</svg>
